<?xml version="1.0" encoding="UTF-8"?>
<svg width="24px" height="24px" viewBox="0 0 24 24" version="1.1" xmlns="http://www.w3.org/2000/svg" xmlns:xlink="http://www.w3.org/1999/xlink">
    <!-- Generator: Sketch 45.1 (43504) - http://www.bohemiancoding.com/sketch -->
    <title>audio</title>
    <desc>Created with Sketch.</desc>
    <defs></defs>
    <g id="Page-1" stroke="none" stroke-width="1" fill="none" fill-rule="evenodd">
        <g id="audio" fill="#FFFFFF">
            <path d="M2.5,9 L6,9 L6,15 L2.5,15 C2.22385763,15 2,14.7761424 2,14.5 L2,9.5 C2,9.22385763 2.22385763,9 2.5,9 L2.5,9 Z M6,9 L10.1158894,4.06093277 L10.1158894,4.06093277 C10.2926714,3.84879432 10.6079538,3.82013229 10.8200922,3.99691433 C10.9340885,4.09191124 11,4.23263505 11,4.38102497 L11,19.618975 C11,19.8951174 10.7761424,20.118975 10.5,20.118975 C10.3516101,20.118975 10.2108863,20.0530635 10.1158894,19.9390672 L6,15 L6,9 Z M14.2968931,17.5443648 C13.7867295,17.7559104 13.2016686,17.5138326 12.990123,17.003669 C12.7785774,16.4935054 13.0206552,15.9084445 13.5308188,15.6968989 C14.0157556,15.495814 14.4567564,15.2000979 14.8284271,14.8284271 C15.5743801,14.0824741 16,13.0761957 16,12 C16,10.9238043 15.5743801,9.91752588 14.8284271,9.17157288 C14.4567564,8.79990213 14.0157556,8.50418603 13.5308188,8.30310107 C13.0206552,8.0915555 12.7785774,7.50649461 12.990123,6.99633099 C13.2016686,6.48616737 13.7867295,6.24408961 14.2968931,6.45563518 C15.0251219,6.75760416 15.6861271,7.20084573 16.2426407,7.75735931 C17.3599483,8.87466689 18,10.3879192 18,12 C18,13.6120808 17.3599483,15.1253331 16.2426407,16.2426407 C15.6861271,16.7991543 15.0251219,17.2423958 14.2968931,17.5443648 Z M17.4666191,20.3747689 C17.0043948,20.677039 16.3846497,20.5473704 16.0823797,20.0851462 C15.7801097,19.6229219 15.9097782,19.0031768 16.3720024,18.7009068 C16.8348739,18.3982136 17.2655718,18.0481367 17.6568542,17.6568542 C19.1481115,16.165597 20,14.1515064 20,12 C20,9.84849364 19.1481115,7.83440299 17.6568542,6.34314575 C17.2655718,5.95186332 16.8348739,5.60178644 16.3720024,5.2990932 C15.9097782,4.99682316 15.7801097,4.37707808 16.0823797,3.91485382 C16.3846497,3.45262955 17.0043948,3.32296103 17.4666191,3.62523106 C18.0448039,4.00333311 18.5825808,4.44044514 19.0710678,4.92893219 C20.9336796,6.791544 22,9.31260853 22,12 C22,14.6873915 20.9336796,17.208456 19.0710678,19.0710678 C18.5825808,19.5595549 18.0448039,19.9966669 17.4666191,20.3747689 Z" id="Combined-Shape"></path>
        </g>
    </g>
</svg>