<?xml version="1.0" encoding="UTF-8"?>
<svg width="24px" height="24px" viewBox="0 0 24 24" version="1.1" xmlns="http://www.w3.org/2000/svg" xmlns:xlink="http://www.w3.org/1999/xlink">
    <!-- Generator: Sketch 45.1 (43504) - http://www.bohemiancoding.com/sketch -->
    <title>expand</title>
    <desc>Created with Sketch.</desc>
    <defs></defs>
    <g id="Page-1" stroke="none" stroke-width="1" fill="none" fill-rule="evenodd">
        <g id="expand" fill="#FFFFFF">
            <path d="M21.7071068,21.7071068 C21.8880712,21.5261424 22,21.2761424 22,21 L22,15 C22,14.4477153 21.5522847,14 21,14 C20.4477153,14 20,14.4477153 20,15 L20,18.5857864 L14.8786797,13.4644661 C14.4881554,13.0739418 13.8549904,13.0739418 13.4644661,13.4644661 C13.0739418,13.8549904 13.0739418,14.4881554 13.4644661,14.8786797 L18.5857864,20 L15,20 C14.4477153,20 14,20.4477153 14,21 C14,21.5522847 14.4477153,22 15,22 L21,22 C21.2761424,22 21.5261424,21.8880712 21.7071068,21.7071068 Z M4,5.41421356 L4,9 C4,9.55228475 3.55228475,10 3,10 C2.44771525,10 2,9.55228475 2,9 L2,3 L2,3 C2,2.72385763 2.11192881,2.47385763 2.29289322,2.29289322 C2.47385763,2.11192881 2.72385763,2 3,2 L3,2 L9,2 C9.55228475,2 10,2.44771525 10,3 L10,3 C10,3.55228475 9.55228475,4 9,4 L5.41421356,4 L10.5355339,9.12132034 C10.9260582,9.51184464 10.9260582,10.1450096 10.5355339,10.5355339 C10.1450096,10.9260582 9.51184464,10.9260582 9.12132034,10.5355339 L4,5.41421356 Z" id="Combined-Shape" transform="translate(12.000000, 12.000000) scale(-1, 1) translate(-12.000000, -12.000000) "></path>
        </g>
    </g>
</svg>