<?xml version="1.0" encoding="UTF-8"?>
<svg width="24px" height="24px" viewBox="0 0 24 24" version="1.1" xmlns="http://www.w3.org/2000/svg" xmlns:xlink="http://www.w3.org/1999/xlink">
    <!-- Generator: Sketch 45.1 (43504) - http://www.bohemiancoding.com/sketch -->
    <title>minimize</title>
    <desc>Created with Sketch.</desc>
    <defs></defs>
    <g id="Page-1" stroke="none" stroke-width="1" fill="none" fill-rule="evenodd">
        <g id="minimize" fill="#FFFFFF">
            <path d="M13.2928932,13.2928932 C13.1119288,13.4738576 13,13.7238576 13,14 L13,22 C13,22.5522847 13.4477153,23 14,23 C14.5522847,23 15,22.5522847 15,22 L15,16.4142136 L20.8284271,22.2426407 C21.2189514,22.633165 21.8521164,22.633165 22.2426407,22.2426407 C22.633165,21.8521164 22.633165,21.2189514 22.2426407,20.8284271 L16.4142136,15 L22,15 C22.5522847,15 23,14.5522847 23,14 C23,13.4477153 22.5522847,13 22,13 L14,13 C13.7238576,13 13.4738576,13.1119288 13.2928932,13.2928932 Z M9,7.58578644 L9,2 L9,2 C9,1.44771525 9.44771525,1 10,1 C10.5522847,1 11,1.44771525 11,2 L11,10 C11,10.2761424 10.8880712,10.5261424 10.7071068,10.7071068 C10.5261424,10.8880712 10.2761424,11 10,11 L2,11 C1.44771525,11 1,10.5522847 1,10 C1,9.44771525 1.44771525,9 2,9 L2,9 L7.58578644,9 L1.75735931,3.17157288 C1.36683502,2.78104858 1.36683502,2.1478836 1.75735931,1.75735931 L1.75735931,1.75735931 L1.75735931,1.75735931 C2.1478836,1.36683502 2.78104858,1.36683502 3.17157288,1.75735931 L3.17157288,1.75735931 L9,7.58578644 Z" id="Combined-Shape" transform="translate(12.000000, 12.000000) scale(-1, 1) translate(-12.000000, -12.000000) "></path>
        </g>
    </g>
</svg>