<?xml version="1.0" encoding="UTF-8"?>
<svg width="24px" height="24px" viewBox="0 0 24 24" version="1.1" xmlns="http://www.w3.org/2000/svg" xmlns:xlink="http://www.w3.org/1999/xlink">
    <!-- Generator: Sketch 45.1 (43504) - http://www.bohemiancoding.com/sketch -->
    <title>mute</title>
    <desc>Created with Sketch.</desc>
    <defs></defs>
    <g id="Page-1" stroke="none" stroke-width="1" fill="none" fill-rule="evenodd">
        <g id="mute" fill="#FFFFFF">
            <path d="M10.9875378,16.1850453 L10.9827,16.17924 L7.17459248,20.7175658 C7.08584203,20.8233344 6.92815313,20.8371304 6.82238447,20.74838 L6.05634003,20.1055924 L6.05634003,20.1055924 C5.95057136,20.0168419 5.93677537,19.859153 6.02552582,19.7533843 L6.02552582,19.7533843 L10.0070201,15.0084242 L10,15 L10,9 L14.1158894,4.06093277 C14.2926714,3.84879432 14.6079538,3.82013229 14.8200922,3.99691433 C14.9340885,4.09191124 15,4.23263505 15,4.38102497 L15,9.05802249 L19.8454594,3.28342881 C19.9342099,3.17766015 20.0918988,3.16386416 20.1976674,3.25261461 L20.9637119,3.89540222 C21.0694805,3.98415266 21.0832765,4.14184156 20.9945261,4.24761023 L15,11.3916082 L15,11.403179 L10.9875378,16.1850453 Z M11.9632176,17.3558611 L15,13.7367648 L15,19.618975 L15,19.618975 C15,19.8951174 14.7761424,20.118975 14.5,20.118975 C14.3516101,20.118975 14.2108863,20.0530635 14.1158894,19.9390672 L11.9632176,17.3558611 Z M6.5,9 L10,9 L10,15 L6.5,15 C6.22385763,15 6,14.7761424 6,14.5 L6,9.5 C6,9.22385763 6.22385763,9 6.5,9 L6.5,9 Z" id="Combined-Shape"></path>
        </g>
    </g>
</svg>