<?xml version="1.0" encoding="UTF-8"?>
<svg width="28px" height="28px" viewBox="0 0 28 28" version="1.1" xmlns="http://www.w3.org/2000/svg" xmlns:xlink="http://www.w3.org/1999/xlink">
    <!-- Generator: Sketch 45.1 (43504) - http://www.bohemiancoding.com/sketch -->
    <title>15-sec</title>
    <desc>Created with Sketch.</desc>
    <defs></defs>
    <g id="Page-1" stroke="none" stroke-width="1" fill="none" fill-rule="evenodd">
        <g id="15-sec" fill-rule="nonzero" fill="#FFFFFF">
            <path d="M14,6 L14,8.47984379 C14,8.61791498 13.8880712,8.72984379 13.75,8.72984379 C13.6932321,8.72984379 13.6381545,8.7105236 13.5938262,8.67506099 L9.2440215,5.1952172 C9.13620602,5.10896482 9.11872568,4.95164172 9.20497806,4.84382624 C9.216511,4.82941006 9.22960533,4.81631574 9.2440215,4.8047828 L13.5938262,1.32493901 L13.5938262,1.32493901 C13.7016417,1.23868662 13.8589648,1.25616697 13.9452172,1.36398245 C13.9806798,1.40831071 14,1.46338834 14,1.52015621 L14,1.52015621 L14,4 C19.5228475,4 24,8.4771525 24,14 C24,19.5228475 19.5228475,24 14,24 C8.4771525,24 4,19.5228475 4,14 C4,13.4477153 4.44771525,13 5,13 C5.55228475,13 6,13.4477153 6,14 C6,18.418278 9.581722,22 14,22 C18.418278,22 22,18.418278 22,14 C22,9.581722 18.418278,6 14,6 Z M12.5996094,18 L10.6416016,18 L10.6416016,14.2207031 C10.6416016,13.7617165 10.6513671,13.3417988 10.6708984,12.9609375 C10.5504551,13.1074226 10.400717,13.2604159 10.2216797,13.4199219 L9.41113281,14.0888672 L8.41015625,12.8583984 L10.8613281,10.8613281 L12.5996094,10.8613281 L12.5996094,18 Z M17.1015625,13.3222656 C17.5117208,13.3222656 17.881997,13.4174795 18.2124023,13.6079102 C18.5428076,13.7983408 18.7999665,14.0677066 18.9838867,14.4160156 C19.1678069,14.7643247 19.2597656,15.1663389 19.2597656,15.6220703 C19.2597656,16.4196003 19.0196964,17.0315734 18.5395508,17.4580078 C18.0594052,17.8844422 17.3326872,18.0976562 16.359375,18.0976562 C15.5260375,18.0976562 14.8457058,17.9690768 14.3183594,17.7119141 L14.3183594,16.1298828 C14.6015639,16.2600918 14.9213849,16.3675126 15.277832,16.4521484 C15.6342791,16.5367843 15.9410794,16.5791016 16.1982422,16.5791016 C16.5563169,16.5791016 16.8313792,16.5034187 17.0234375,16.3520508 C17.2154958,16.2006828 17.3115234,15.9768895 17.3115234,15.6806641 C17.3115234,15.4072252 17.2138682,15.1940112 17.0185547,15.0410156 C16.8232412,14.8880201 16.5270202,14.8115234 16.1298828,14.8115234 C15.8271469,14.8115234 15.5000018,14.868489 15.1484375,14.9824219 L14.4404297,14.6308594 L14.7089844,10.8613281 L18.78125,10.8613281 L18.78125,12.4677734 L16.3496094,12.4677734 L16.2617188,13.4101562 C16.5156263,13.3613279 16.6962885,13.3344727 16.8037109,13.3295898 C16.9111333,13.324707 17.0104162,13.3222656 17.1015625,13.3222656 Z" id="Combined-Shape"></path>
        </g>
    </g>
</svg>