<?xml version="1.0" encoding="UTF-8"?>
<svg width="24px" height="24px" viewBox="0 0 24 24" version="1.1" xmlns="http://www.w3.org/2000/svg" xmlns:xlink="http://www.w3.org/1999/xlink">
    <!-- Generator: Sketch 45.1 (43504) - http://www.bohemiancoding.com/sketch -->
    <title>next</title>
    <desc>Created with Sketch.</desc>
    <defs></defs>
    <g id="Page-1" stroke="none" stroke-width="1" fill="none" fill-rule="evenodd">
        <g id="next" fill="#FFFFFF">
            <path d="M4.76843775,5.48900584 L14.3371231,11.5781693 C14.5700938,11.7264233 14.6387702,12.0354671 14.4905161,12.2684377 C14.4512268,12.3301781 14.3988635,12.3825414 14.3371231,12.4218307 L4.76843775,18.5109942 L4.76843775,18.5109942 C4.53546706,18.6592482 4.22642333,18.5905719 4.07816926,18.3576012 C4.02711669,18.2773757 4,18.1842554 4,18.0891634 L4,5.91083658 C4,5.63469421 4.22385763,5.41083658 4.5,5.41083658 C4.59509201,5.41083658 4.68821228,5.43795327 4.76843775,5.48900584 L4.76843775,5.48900584 Z M17.5,4 L19.5,4 C19.7761424,4 20,4.22385763 20,4.5 L20,19.5 C20,19.7761424 19.7761424,20 19.5,20 L17.5,20 C17.2238576,20 17,19.7761424 17,19.5 L17,4.5 L17,4.5 C17,4.22385763 17.2238576,4 17.5,4 Z" id="Combined-Shape"></path>
        </g>
    </g>
</svg>