<?xml version="1.0" encoding="UTF-8"?>
<svg width="24px" height="24px" viewBox="0 0 24 24" version="1.1" xmlns="http://www.w3.org/2000/svg" xmlns:xlink="http://www.w3.org/1999/xlink">
    <!-- Generator: Sketch 45.1 (43504) - http://www.bohemiancoding.com/sketch -->
    <title>overview</title>
    <desc>Created with Sketch.</desc>
    <defs></defs>
    <g id="Page-1" stroke="none" stroke-width="1" fill="none" fill-rule="evenodd">
        <g id="overview" fill="#FFFFFF">
            <path d="M0.5,2 L23.5,2 C23.7761424,2 24,2.22385763 24,2.5 L24,21.5 C24,21.7761424 23.7761424,22 23.5,22 L0.5,22 C0.223857625,22 3.38176876e-17,21.7761424 0,21.5 L0,2.5 L0,2.5 C-3.38176876e-17,2.22385763 0.223857625,2 0.5,2 L0.5,2 Z M2.25,4 C2.11192881,4 2,4.11192881 2,4.25 L2,19.75 C2,19.8880712 2.11192881,20 2.25,20 L21.75,20 C21.8880712,20 22,19.8880712 22,19.75 L22,4.25 C22,4.11192881 21.8880712,4 21.75,4 L2.25,4 Z M4,6 L14,6 L14,12 L4,12 L4,6 Z" id="Combined-Shape"></path>
        </g>
    </g>
</svg>